<svg xmlns="http://www.w3.org/2000/svg" width="136" height="21" viewBox="0 0 136 21" fill="none"><g clip-path="url(#clip0_1681_33789)"><path d="M0 20.9493H3.46108L12.7754 4.51449L22.0898 20.9493H25.5509L13.7425 0H11.8084L0 20.9493Z" fill="white"></path><path d="M29.6228 20.9493H32.5749L32.6258 5.12319L40.2605 12.7319H41.533L49.1677 5.12319V20.9493H52.1198V0H49.9821L40.8713 9.28261L31.7096 0H29.6228V20.9493Z" fill="white"></path><path d="M59.0928 0V2.94203L74.3622 2.8913C74.3622 2.8913 77.1107 3.34783 77.1107 6.03623C77.1107 8.72464 74.3622 9.02899 74.3622 9.02899H59.0928V11.8696H74.3622C74.3622 11.8696 77.2125 12.529 77.1107 15.1159C77.0089 17.7029 74.3622 18.058 74.3622 18.058H59.0928V20.9493H74.8712C75.5838 20.9493 79.9101 19.7319 80.0628 15.5725C80.2155 11.413 78.0778 10.4493 78.0778 10.4493C78.0778 10.4493 80.0628 9.43478 80.0628 5.22464C80.0628 1.01449 74.8712 0 74.8712 0H59.0928Z" fill="white"></path><path d="M107.446 0.0507812V2.89136H89.5298V9.18122H107.446V12.0725H86.5269V0.0507812H107.446Z" fill="white"></path><path d="M107.497 18.0068V20.9489L86.5779 20.8981V18.0068H107.497Z" fill="white"></path><path d="M114.012 0V2.94203H129.231C129.231 2.94203 132.183 3.34783 132.081 6.03613C131.979 8.72444 129.231 9.18116 129.231 9.18116H114.012V12.0725H122.766L131.725 20.9493H136L127.042 12.0725C127.042 12.0725 134.931 12.681 135.033 6.34048C135.135 2.12849e-05 129.231 0 129.231 0H114.012Z" fill="white"></path></g><defs><clipPath id="clip0_1681_33789"><rect width="136" height="21" fill="white"></rect></clipPath></defs></svg>