<svg width="27" height="33" viewBox="0 0 27 33" fill="none" xmlns="http://www.w3.org/2000/svg">
<path d="M8.74874 16.2482L11.7482 19.2477L17.7472 13.2487M25.246 17.7479C25.246 25.2467 19.9969 28.996 13.7579 31.1707C13.4312 31.2814 13.0763 31.2761 12.7531 31.1557C6.49912 28.996 1.25 25.2467 1.25 17.7479V7.24967C1.25 6.85191 1.40801 6.47044 1.68927 6.18919C1.97052 5.90793 2.35199 5.74992 2.74975 5.74992C5.74925 5.74992 9.49862 3.95022 12.1082 1.6706C12.4259 1.39915 12.8301 1.25 13.248 1.25C13.6659 1.25 14.0701 1.39915 14.3878 1.6706C17.0124 3.96522 20.7467 5.74992 23.7462 5.74992C24.144 5.74992 24.5255 5.90793 24.8067 6.18919C25.088 6.47044 25.246 6.85191 25.246 7.24967V17.7479Z" stroke="#616161" stroke-opacity="0.8" stroke-width="2.5" stroke-linecap="round" stroke-linejoin="round"/>
</svg>
