<svg width="27" height="33" viewBox="0 0 27 33" fill="none" xmlns="http://www.w3.org/2000/svg">
<path d="M25.2503 13.2501C25.2503 20.7397 16.9417 28.5398 14.1517 30.9489C13.8917 31.1443 13.5754 31.25 13.2502 31.25C12.9249 31.25 12.6086 31.1443 12.3486 30.9489C9.5586 28.5398 1.25 20.7397 1.25 13.2501C1.25 10.0675 2.5143 7.01523 4.76476 4.76476C7.01523 2.5143 10.0675 1.25 13.2502 1.25C16.4328 1.25 19.4851 2.5143 21.7355 4.76476C23.986 7.01523 25.2503 10.0675 25.2503 13.2501Z" stroke="#616161" stroke-opacity="0.8" stroke-width="2.5" stroke-linecap="round" stroke-linejoin="round"/>
<path d="M13.2502 17.7502C15.7355 17.7502 17.7502 15.7355 17.7502 13.2501C17.7502 10.7648 15.7355 8.75009 13.2502 8.75009C10.7648 8.75009 8.75009 10.7648 8.75009 13.2501C8.75009 15.7355 10.7648 17.7502 13.2502 17.7502Z" stroke="#616161" stroke-opacity="0.8" stroke-width="2.5" stroke-linecap="round" stroke-linejoin="round"/>
</svg>
