<svg width="38" height="21" viewBox="0 0 38 21" fill="none" xmlns="http://www.w3.org/2000/svg">
<path d="M10.8932 0.779288C10.2792 0.519528 9.66524 0.259768 9.05126 8.43406e-06C8.90041 0.313804 8.74955 0.6276 8.59869 0.941396C5.88327 6.58972 3.16785 12.238 0.452433 17.8864C0.301576 18.2002 0.150719 18.514 -0.000137687 18.8278C1.22782 19.3473 2.45578 19.8668 3.68373 20.3863C3.80389 20.0595 3.92405 19.7328 4.0442 19.406C6.20705 13.5239 8.36988 7.64175 10.5327 1.75964C10.6529 1.43286 10.773 1.10607 10.8932 0.779288Z" fill="#616161" fill-opacity="0.8"/>
<path d="M26.7904 0.779288C27.4044 0.519528 28.0184 0.259768 28.6323 8.43406e-06C28.7832 0.313804 28.934 0.6276 29.0849 0.941396C31.8003 6.58972 34.5157 12.238 37.2312 17.8864C37.382 18.2002 37.5329 18.514 37.6837 18.8278C36.4558 19.3473 35.2278 19.8668 33.9999 20.3863C33.8797 20.0595 33.7595 19.7328 33.6394 19.406C31.4765 13.5239 29.3137 7.64175 27.1509 1.75964C27.0307 1.43286 26.9106 1.10607 26.7904 0.779288Z" fill="#616161" fill-opacity="0.8"/>
<path d="M18.8418 0.389648V2.60704" stroke="#616161" stroke-opacity="0.8" stroke-width="2"/>
<path d="M18.8418 7.04199V10.7376" stroke="#616161" stroke-opacity="0.8" stroke-width="2"/>
<path d="M18.8418 15.1724V19.6071" stroke="#616161" stroke-opacity="0.8" stroke-width="2"/>
</svg>
